<svg width="436" height="456" viewBox="0 0 436 456" fill="none" xmlns="http://www.w3.org/2000/svg">
<circle cx="163.5" cy="292.5" r="163.5" fill="#DF2FAE" fill-opacity="0.32"/>
<rect x="190.5" y="2.5" width="243" height="314" rx="16.5" fill="#181818" stroke="#DF2FAE" stroke-width="5"/>
<path d="M341.509 125.753C341.455 125.274 341.03 125.061 340.71 125.061C340.4 125.061 333.428 124.529 333.428 124.529C333.428 124.529 328.584 119.686 327.999 119.207C327.467 118.675 326.456 118.834 326.03 118.941C325.977 118.941 324.965 119.26 323.315 119.792C321.666 115.056 318.845 110.744 313.789 110.744H313.31C311.926 108.935 310.116 108.083 308.626 108.083C296.917 108.083 291.284 122.72 289.528 130.171C284.951 131.608 281.704 132.557 281.332 132.725C278.777 133.515 278.724 133.577 278.404 135.963C278.138 137.773 271.485 189.23 271.485 189.23L323.262 198.917L351.355 192.849C351.408 192.743 341.562 126.232 341.509 125.753ZM320.441 120.537C319.164 120.91 317.621 121.389 316.077 121.921V120.963C316.077 118.089 315.705 115.747 315.013 113.885C317.674 114.204 319.324 117.131 320.441 120.537ZM311.766 114.47C312.458 116.28 312.937 118.834 312.937 122.347V122.879C310.063 123.775 307.029 124.689 303.889 125.7C305.645 118.994 308.999 115.694 311.766 114.47ZM308.36 111.17C308.892 111.17 309.424 111.383 309.85 111.702C306.071 113.459 302.08 117.876 300.43 126.809C297.928 127.607 295.533 128.299 293.245 129.044C295.161 122.241 299.951 111.17 308.36 111.17Z" fill="#DF2FAE"/>
<path d="M340.71 124.955C340.391 124.955 333.428 124.423 333.428 124.423C333.428 124.423 328.584 119.579 327.999 119.1C327.786 118.888 327.52 118.781 327.307 118.781L323.422 198.917L351.515 192.849C351.515 192.849 341.668 126.232 341.615 125.753C341.402 125.274 341.03 125.061 340.71 124.955Z" fill="#98307B"/>
<path d="M313.301 141.223L309.948 151.327C309.948 151.327 306.914 149.703 303.304 149.703C297.91 149.703 297.653 153.101 297.653 153.944C297.653 158.547 309.69 160.33 309.69 171.161C309.69 179.694 304.297 185.185 297.023 185.185C288.233 185.185 283.833 179.748 283.833 179.748L286.184 171.995C286.184 171.995 290.796 175.978 294.664 175.978C297.227 175.978 298.274 173.991 298.274 172.527C298.274 166.504 288.437 166.238 288.437 156.294C288.437 147.974 294.407 139.919 306.497 139.919C310.994 139.857 313.301 141.223 313.301 141.223Z" fill="white"/>
<path d="M292.872 26.03L287.142 35.6H286.662L280.932 26.03H275.802L284.652 40.13V47H289.212V40.04L298.032 26.03H292.872ZM304.186 29.87C299.086 29.87 294.826 32.66 294.826 38.45C294.826 44.27 299.086 47 304.186 47C309.316 47 313.576 44.36 313.576 38.45C313.576 32.6 309.316 29.87 304.186 29.87ZM304.186 42.86C301.336 42.86 299.296 41.6 299.296 38.45C299.296 35.27 301.336 34.04 304.186 34.04C307.066 34.04 309.106 35.33 309.106 38.45C309.106 41.48 307.066 42.86 304.186 42.86ZM328.396 30.17V38.3C328.396 40.58 327.796 43.1 323.866 43.1C319.486 43.1 319.786 39.92 319.786 38.6V30.17H315.256V38.6C315.256 41.06 315.436 47 322.546 47C325.576 47 327.106 46.04 328.186 44.54H328.396V47H332.956V30.17H328.396ZM344.762 30.17C341.852 30.17 340.832 31.04 339.872 32.66H339.602V30.17H335.042V47H339.602V39.47C339.602 37.19 340.592 34.55 343.982 34.55C345.422 34.55 346.592 34.79 347.012 34.91L347.732 30.62C346.952 30.44 345.962 30.17 344.762 30.17ZM250.048 73.83H249.598L243.868 57H238.588L246.148 78H253.498L261.088 57H255.778L250.048 73.83ZM273.614 63.66C272.474 62.16 270.584 61.17 267.464 61.17C260.354 61.17 259.604 67.14 259.604 69.6C259.604 71.85 260.384 78 267.434 78C270.614 78 272.534 77.13 273.674 75.66H273.824V78H278.384V61.17H273.824V63.66H273.614ZM268.784 74.1C264.434 74.1 263.954 70.8 263.954 69.6C263.954 68.28 264.404 65.1 268.784 65.1C272.714 65.1 273.524 67.32 273.524 69.6C273.524 72.15 272.714 74.1 268.784 74.1ZM284.975 78V56.43H280.445V78H284.975ZM300.187 61.17V69.3C300.187 71.58 299.587 74.1 295.657 74.1C291.277 74.1 291.577 70.92 291.577 69.6V61.17H287.047V69.6C287.047 72.06 287.227 78 294.337 78C297.367 78 298.897 77.04 299.977 75.54H300.187V78H304.747V61.17H300.187ZM320.667 63.66C319.527 62.16 317.637 61.17 314.517 61.17C307.407 61.17 306.657 67.14 306.657 69.6C306.657 71.85 307.437 78 314.487 78C317.667 78 319.587 77.13 320.727 75.66H320.877V78H325.437V61.17H320.877V63.66H320.667ZM315.837 74.1C311.487 74.1 311.007 70.8 311.007 69.6C311.007 68.28 311.457 65.1 315.837 65.1C319.767 65.1 320.577 67.32 320.577 69.6C320.577 72.15 319.767 74.1 315.837 74.1ZM333.781 65.07H339.241V61.23H333.781V56.37H329.191V61.23H326.971V65.07H329.191V71.82C329.191 74.25 329.191 78 333.781 78C338.341 78 339.241 77.7 339.241 77.7V73.26C334.861 73.5 333.781 73.83 333.781 71.4V71.04V65.07ZM345.457 78V61.29H340.927V78H345.457ZM345.457 60.09V56.01H340.927V60.09H345.457ZM356.596 60.87C351.496 60.87 347.236 63.66 347.236 69.45C347.236 75.27 351.496 78 356.596 78C361.726 78 365.986 75.36 365.986 69.45C365.986 63.6 361.726 60.87 356.596 60.87ZM356.596 73.86C353.746 73.86 351.706 72.6 351.706 69.45C351.706 66.27 353.746 65.04 356.596 65.04C359.476 65.04 361.516 66.33 361.516 69.45C361.516 72.48 359.476 73.86 356.596 73.86ZM378.106 61.17C375.076 61.17 373.546 62.16 372.466 63.66H372.256V61.17H367.696V78H372.256V69.9C372.256 67.62 372.826 65.1 376.786 65.1C381.136 65.1 380.866 68.28 380.866 69.6V78H385.396V69.6C385.396 67.14 385.216 61.17 378.106 61.17Z" fill="white"/>
<rect x="225" y="239" width="182" height="49" rx="7" fill="#DF2FAE"/>
<path d="M262.994 267.76C262.994 263.29 259.004 262.24 254.864 261.52V257.2C257.234 257.77 257.654 259.3 257.654 260.44C259.244 260.44 262.454 260.44 262.454 260.44C262.454 257.56 261.104 253.6 254.864 252.82V251.35H251.294V252.73C245.084 253.15 243.614 256.3 243.614 259.09C243.614 262.63 246.014 264.22 251.294 265.15V269.62C249.464 269.35 248.024 268.54 248.024 266.2C245.444 266.2 244.124 266.2 243.194 266.2C243.194 268.06 242.804 273.1 251.294 273.85V275.29H254.864V273.94C260.534 273.76 262.994 272.29 262.994 267.76ZM248.534 259.12C248.534 258.25 248.984 257.32 251.294 257.05V260.89C249.194 260.47 248.534 260.02 248.534 259.12ZM254.864 269.68V265.66C256.634 265.93 258.284 266.44 258.284 267.85C258.284 268.99 256.844 269.5 254.864 269.68ZM271.03 253.03C271.03 253.03 270.88 257.2 265.06 257.2C265.06 260.68 265.06 260.65 265.06 260.65H271.03V274H275.59V253.03H271.03ZM294.708 259.69C294.708 256.81 292.698 252.88 286.668 252.88C279.978 252.88 278.148 257.71 278.028 260.65C278.028 260.65 281.628 260.65 282.648 260.65C282.768 259.21 283.128 257.17 286.368 257.17C289.578 257.17 290.088 258.49 290.088 259.78C290.088 264.46 282.798 262.45 278.808 268.75C277.488 270.85 277.698 274 277.698 274H294.408V269.83H283.518C284.598 266.53 294.708 267.01 294.708 259.69ZM306.74 252.7C301.13 252.7 297.17 256.45 297.17 263.35C297.17 270.37 301.13 274 306.74 274C312.38 274 316.34 270.25 316.34 263.35C316.34 256.45 312.38 252.7 306.74 252.7ZM306.74 269.56C303.29 269.56 301.76 267.67 301.76 263.35C301.76 259.06 303.29 257.17 306.74 257.17C310.22 257.17 311.75 259.12 311.75 263.35C311.75 267.52 310.22 269.56 306.74 269.56ZM323.87 271.99C323.87 269.86 322.67 268.75 321.17 268.75C319.7 268.75 318.5 269.95 318.5 271.45C318.5 272.83 319.22 273.94 320.9 273.73C320.81 274.51 319.76 275.26 319.76 275.26C319.76 275.26 319.85 275.62 320.15 276.79C323.3 275.68 323.87 273.19 323.87 271.99ZM335.911 252.7C330.301 252.7 326.341 256.45 326.341 263.35C326.341 270.37 330.301 274 335.911 274C341.551 274 345.511 270.25 345.511 263.35C345.511 256.45 341.551 252.7 335.911 252.7ZM335.911 269.56C332.461 269.56 330.931 267.67 330.931 263.35C330.931 259.06 332.461 257.17 335.911 257.17C339.391 257.17 340.921 259.12 340.921 263.35C340.921 267.52 339.391 269.56 335.911 269.56ZM357.513 252.7C351.903 252.7 347.943 256.45 347.943 263.35C347.943 270.37 351.903 274 357.513 274C363.153 274 367.113 270.25 367.113 263.35C367.113 256.45 363.153 252.7 357.513 252.7ZM357.513 269.56C354.063 269.56 352.533 267.67 352.533 263.35C352.533 259.06 354.063 257.17 357.513 257.17C360.993 257.17 362.523 259.12 362.523 263.35C362.523 267.52 360.993 269.56 357.513 269.56ZM379.116 252.7C373.506 252.7 369.546 256.45 369.546 263.35C369.546 270.37 373.506 274 379.116 274C384.756 274 388.716 270.25 388.716 263.35C388.716 256.45 384.756 252.7 379.116 252.7ZM379.116 269.56C375.666 269.56 374.136 267.67 374.136 263.35C374.136 259.06 375.666 257.17 379.116 257.17C382.596 257.17 384.126 259.12 384.126 263.35C384.126 267.52 382.596 269.56 379.116 269.56Z" fill="white"/>
</svg>
