<svg width="407" height="433" viewBox="0 0 407 433" fill="none" xmlns="http://www.w3.org/2000/svg">
<rect x="238.089" width="246.802" height="246.802" rx="121" transform="rotate(46.8603 238.089 0)" fill="#501353"/>
<rect x="2.5" y="116.5" width="243" height="314" rx="16.5" fill="#181818" stroke="#DF2FAE" stroke-width="5"/>
<path d="M94.8079 148.26C96.1279 147.54 96.8479 146.28 96.8479 144C96.8479 139.77 94.0279 138 89.6779 138C88.5079 138 87.6679 138 87.0679 138H78.9979V159C78.9979 159 89.5579 159 91.8379 159C95.0479 159 97.7479 157.08 97.7479 153.03C97.7479 150.27 96.6979 148.92 94.8079 148.26ZM88.3579 142.17C90.5779 142.17 92.3779 142.29 92.3779 144.39C92.3779 146.49 90.6679 146.58 88.5679 146.58C87.3979 146.58 85.2379 146.58 83.5579 146.58V142.17C84.1879 142.17 87.1879 142.17 88.3579 142.17ZM89.3179 154.86C87.7879 154.86 89.1679 154.86 87.3679 154.86H83.5579V150.24C84.7879 150.24 88.4779 150.24 89.9179 150.24C92.0179 150.24 93.2779 150.57 93.2779 152.55C93.2779 154.71 91.5679 154.86 89.3179 154.86ZM112.305 142.17V150.3C112.305 152.58 111.705 155.1 107.775 155.1C103.395 155.1 103.695 151.92 103.695 150.6V142.17H99.1647V150.6C99.1647 153.06 99.3447 159 106.455 159C109.485 159 111.015 158.04 112.095 156.54H112.305V159H116.865V142.17H112.305ZM132.505 142.2L127.645 154.86L122.755 142.2H117.955L124.435 159.03H126.055L123.595 165.42H128.425L137.335 142.2H132.505ZM154.301 151.65H154.481C154.721 149.34 154.421 145.8 151.181 143.58V143.61C149.771 142.62 147.851 142.02 145.481 142.02C139.811 142.02 136.451 145.02 136.451 150.51C136.451 156.12 139.721 159 145.481 159C151.001 159 153.941 156.78 154.391 153.15H149.981C149.561 154.26 148.211 155.01 145.481 155.01C142.541 155.01 141.191 153.9 140.861 151.65H154.301ZM145.481 146.01C148.721 146.01 149.561 147.39 149.921 148.65H141.041C141.581 146.94 142.961 146.01 145.481 146.01ZM166.016 142.17C163.106 142.17 162.086 143.04 161.126 144.66H160.856V142.17H156.296V159H160.856V151.47C160.856 149.19 161.846 146.55 165.236 146.55C166.676 146.55 167.846 146.79 168.266 146.91L168.986 142.62C168.206 142.44 167.216 142.17 166.016 142.17Z" fill="white"/>
<path d="M119.278 393.8C119.278 396.08 119.368 399.83 114.538 399.83C109.768 399.83 109.648 396.95 109.648 393.8V383H105.088V394.31C105.088 397.55 105.058 404 114.568 404C124.048 404 124.048 397.19 124.048 394.34C124.048 391.46 124.048 383 124.048 383H119.278C119.278 383 119.278 391.52 119.278 393.8ZM134.781 393.8L134.391 393.77C131.451 393.32 130.941 392.9 130.941 392.15C130.941 391.64 131.481 390.71 134.031 390.71C136.671 390.71 137.811 391.43 137.811 392.75V392.9H142.461V392.75C142.461 390.17 140.991 387.08 134.031 387.08C127.551 387.08 126.201 389.87 126.201 392.21C126.201 395.57 129.201 396.65 134.031 397.28C134.271 397.31 134.511 397.34 134.751 397.37C136.581 397.58 138.201 397.82 138.201 399.08C138.201 400.19 136.461 400.43 134.631 400.43C131.601 400.43 130.521 399.77 130.521 398.33V398.18H125.841V398.51C125.811 399.38 125.811 400.79 126.981 401.96C128.331 403.31 130.941 404 134.751 404C139.911 404 142.911 403.19 142.911 399.02C142.911 395.03 138.591 394.37 134.781 393.8Z" fill="white"/>
<path d="M120.787 267.316L118.819 272.38H118.639L116.671 267.316H114.751L117.343 274H120.127L122.719 267.316H120.787ZM124.958 274V267.316H123.146V274H124.958ZM124.958 266.836V265.204H123.146V266.836H124.958ZM131.321 268.264C130.865 267.664 130.109 267.268 128.861 267.268C126.017 267.268 125.717 269.656 125.717 270.64C125.717 271.54 126.029 274 128.849 274C130.121 274 130.889 273.652 131.345 273.064H131.405V274H133.229V267.268H131.405V268.264H131.321ZM129.389 272.44C127.649 272.44 127.457 271.12 127.457 270.64C127.457 270.112 127.637 268.84 129.389 268.84C130.961 268.84 131.285 269.728 131.285 270.64C131.285 271.66 130.961 272.44 129.389 272.44ZM100.835 278.6V287H102.659H107.735V285.332H102.659V283.628H107.735V281.984H102.659V280.256H107.735V278.6H100.835ZM111.751 282.92L111.595 282.908C110.419 282.728 110.215 282.56 110.215 282.26C110.215 282.056 110.431 281.684 111.451 281.684C112.507 281.684 112.963 281.972 112.963 282.5V282.56H114.823V282.5C114.823 281.468 114.235 280.232 111.451 280.232C108.859 280.232 108.319 281.348 108.319 282.284C108.319 283.628 109.519 284.06 111.451 284.312C111.547 284.324 111.643 284.336 111.739 284.348C112.471 284.432 113.119 284.528 113.119 285.032C113.119 285.476 112.423 285.572 111.691 285.572C110.479 285.572 110.047 285.308 110.047 284.732V284.672H108.175V284.804C108.163 285.152 108.163 285.716 108.631 286.184C109.171 286.724 110.215 287 111.739 287C113.803 287 115.003 286.676 115.003 285.008C115.003 283.412 113.275 283.148 111.751 282.92ZM120.725 284.48C120.593 284.948 120.173 285.368 119.021 285.368C117.833 285.368 117.209 284.828 117.209 283.628C117.209 282.488 117.833 281.9 119.021 281.9C120.137 281.9 120.581 282.284 120.737 282.788H122.525C122.369 281.192 120.953 280.256 119.021 280.256C117.041 280.256 115.433 281.456 115.433 283.628C115.433 285.86 117.041 287 119.021 287C120.953 287 122.381 286.1 122.525 284.48H120.725ZM126.966 280.268C125.802 280.268 125.394 280.616 125.01 281.264H124.902V280.268H123.078V287H124.902V283.988C124.902 283.076 125.298 282.02 126.654 282.02C127.23 282.02 127.698 282.116 127.866 282.164L128.154 280.448C127.842 280.376 127.446 280.268 126.966 280.268ZM131.889 280.148C129.849 280.148 128.145 281.264 128.145 283.58C128.145 285.908 129.849 287 131.889 287C133.941 287 135.645 285.944 135.645 283.58C135.645 281.24 133.941 280.148 131.889 280.148ZM131.889 285.344C130.749 285.344 129.933 284.84 129.933 283.58C129.933 282.308 130.749 281.816 131.889 281.816C133.041 281.816 133.857 282.332 133.857 283.58C133.857 284.792 133.041 285.344 131.889 285.344ZM145.312 280.268L143.752 285.224L142.216 280.268H140.44L138.916 285.224L137.356 280.268H135.52L137.632 287H140.104L141.328 283.016L142.564 287H145.036L147.148 280.268H145.312Z" fill="white"/>
<path d="M77.8223 255.672C77.7871 255.355 77.5059 255.215 77.2949 255.215C77.0898 255.215 72.4844 254.863 72.4844 254.863C72.4844 254.863 69.2852 251.664 68.8984 251.348C68.5469 250.996 67.8789 251.102 67.5977 251.172C67.5625 251.172 66.8945 251.383 65.8047 251.734C64.7148 248.605 62.8516 245.758 59.5117 245.758H59.1953C58.2812 244.562 57.0859 244 56.1016 244C48.3672 244 44.6465 253.668 43.4863 258.59C40.4629 259.539 38.3184 260.166 38.0723 260.277C36.3848 260.799 36.3496 260.84 36.1387 262.416C35.9629 263.611 31.5684 297.602 31.5684 297.602L65.7695 304L84.3262 299.992C84.3613 299.922 77.8574 255.988 77.8223 255.672ZM63.9062 252.227C63.0625 252.473 62.043 252.789 61.0234 253.141V252.508C61.0234 250.609 60.7773 249.062 60.3203 247.832C62.0781 248.043 63.168 249.977 63.9062 252.227ZM58.1758 248.219C58.6328 249.414 58.9492 251.102 58.9492 253.422V253.773C57.0508 254.365 55.0469 254.969 52.9727 255.637C54.1328 251.207 56.3477 249.027 58.1758 248.219ZM55.9258 246.039C56.2773 246.039 56.6289 246.18 56.9102 246.391C54.4141 247.551 51.7773 250.469 50.6875 256.369C49.0352 256.896 47.4531 257.354 45.9414 257.846C47.207 253.352 50.3711 246.039 55.9258 246.039Z" fill="#DF2FAE"/>
<path d="M77.2949 255.145C77.084 255.145 72.4844 254.793 72.4844 254.793C72.4844 254.793 69.2852 251.594 68.8984 251.277C68.7578 251.137 68.582 251.066 68.4414 251.066L65.875 304L84.4316 299.992C84.4316 299.992 77.9277 255.988 77.8926 255.672C77.752 255.355 77.5059 255.215 77.2949 255.145Z" fill="#98307B"/>
<path d="M59.1895 265.891L56.9746 272.564C56.9746 272.564 54.9707 271.492 52.5859 271.492C49.0234 271.492 48.8535 273.736 48.8535 274.293C48.8535 277.334 56.8047 278.512 56.8047 285.666C56.8047 291.303 53.2422 294.93 48.4375 294.93C42.6309 294.93 39.7246 291.338 39.7246 291.338L41.2773 286.217C41.2773 286.217 44.3242 288.848 46.8789 288.848C48.5723 288.848 49.2637 287.535 49.2637 286.568C49.2637 282.59 42.7656 282.414 42.7656 275.846C42.7656 270.35 46.709 265.029 54.6953 265.029C57.666 264.988 59.1895 265.891 59.1895 265.891Z" fill="white"/>
<rect x="179.3" y="270.3" width="16.5" height="27.5" fill="white"/>
<path d="M187 247.2C185.053 247.2 183.322 248.059 182.114 249.4H176.004C174.449 249.4 173.38 250.973 173.959 252.416L176 258.2H198L200.041 252.416C200.62 250.973 199.551 249.4 197.996 249.4H191.886C190.678 248.059 188.947 247.2 187 247.2ZM176 262.6C176 262.6 160.6 275.8 160.6 291.2C160.6 300 167.2 304.4 171.6 304.4H187H202.4C206.8 304.4 213.4 300 213.4 291.2C213.4 275.8 198 262.6 198 262.6H176ZM184.8 270.3H189.2V273.854C192.17 274.518 194.156 276.542 194.253 279.276H190.545C190.362 277.789 188.978 276.797 187.073 276.797C185.102 276.797 183.799 277.711 183.799 279.147C183.799 280.309 184.695 280.978 186.901 281.446L189.174 281.927C192.96 282.724 194.588 284.36 194.588 287.281C194.588 290.427 192.57 292.536 189.2 293.177V296.7H184.8V293.185C181.564 292.578 179.53 290.591 179.412 287.685H183.219C183.401 289.212 184.943 290.19 187.163 290.19C189.211 290.19 190.661 289.199 190.661 287.775C190.661 286.574 189.722 285.884 187.412 285.386L184.959 284.862C181.527 284.145 179.841 282.358 179.841 279.487C179.841 276.598 181.753 274.54 184.8 273.862V270.3Z" fill="#DF2FAE"/>
<path d="M58.476 177.292C58.0855 176.901 57.4523 176.901 57.0618 177.292L50.6979 183.656C50.3073 184.046 50.3073 184.68 50.6979 185.07C51.0884 185.461 51.7215 185.461 52.1121 185.07L57.7689 179.413L63.4258 185.07C63.8163 185.461 64.4495 185.461 64.84 185.07C65.2305 184.68 65.2305 184.046 64.84 183.656L58.476 177.292ZM58.7689 235.001L58.7689 177.999H56.7689L56.7689 235.001H58.7689Z" fill="white"/>
<path d="M58 377.002L58 320" stroke="white" stroke-width="2"/>
<path d="M187.707 377.71C187.317 378.101 186.683 378.101 186.293 377.71L179.929 371.346C179.538 370.955 179.538 370.322 179.929 369.932C180.319 369.541 180.953 369.541 181.343 369.932L187 375.589L192.657 369.932C193.047 369.541 193.681 369.541 194.071 369.932C194.462 370.322 194.462 370.955 194.071 371.346L187.707 377.71ZM188 320.001V377.003H186V320.001H188Z" fill="white"/>
<path d="M187.231 178V235.002" stroke="white" stroke-width="2"/>
</svg>
