<svg width="60" height="60" viewBox="0 0 60 60" fill="none" xmlns="http://www.w3.org/2000/svg">
<path opacity="0.1" d="M0 0H60L30 30C18.9293 41.0707 0 33.23 0 17.5736V0Z" fill="url(#paint0_linear_421_3829)"/>
<path d="M25.8999 12C25.4594 11.5518 24.9116 11.2239 24.3085 11.0475C23.7053 10.8711 23.0671 10.852 22.4546 10.9922C21.8365 11.1288 21.263 11.4197 20.7876 11.8377C20.3122 12.2557 19.9504 12.7872 19.7358 13.3828L7.103 48.0938C6.906 48.6587 6.84616 49.2624 6.92841 49.855C7.01066 50.4476 7.23264 51.0122 7.57605 51.5021C7.91946 51.992 8.37445 52.3933 8.90347 52.6727C9.43249 52.9522 10.0204 53.1019 10.6186 53.1094C11.057 53.11 11.4924 53.0388 11.9077 52.8984L46.6186 40.2656C47.2142 40.0511 47.7457 39.6892 48.1638 39.2138C48.5818 38.7385 48.8726 38.165 49.0093 37.5469C49.1494 36.9343 49.1304 36.2961 48.954 35.693C48.7776 35.0899 48.4496 34.542 48.0014 34.1016L25.8999 12ZM14.9546 37.4531L19.4546 25.0781L34.9233 40.5469L22.5483 45.0469L14.9546 37.4531ZM37.5014 16.875C37.5359 15.6069 37.8395 14.3606 38.3921 13.2188C39.6343 10.7344 41.978 9.375 45.0014 9.375C46.5718 9.375 47.5796 8.83594 48.2124 7.6875C48.535 7.03717 48.7186 6.32677 48.7514 5.60156C48.7514 5.35643 48.8001 5.11373 48.8946 4.88754C48.9891 4.66136 49.1276 4.4562 49.302 4.28395C49.4764 4.11171 49.6833 3.97582 49.9107 3.88416C50.138 3.7925 50.3813 3.7469 50.6264 3.75C51.1237 3.75 51.6006 3.94754 51.9523 4.29917C52.3039 4.65081 52.5014 5.12772 52.5014 5.625C52.5014 8.64844 50.5093 13.125 45.0014 13.125C43.4311 13.125 42.4233 13.6641 41.7905 14.8125C41.4679 15.4628 41.2843 16.1732 41.2514 16.8984C41.2515 17.1436 41.2028 17.3863 41.1083 17.6125C41.0138 17.8386 40.8753 18.0438 40.7009 18.216C40.5264 18.3883 40.3196 18.5242 40.0922 18.6158C39.8648 18.7075 39.6216 18.7531 39.3764 18.75C38.8792 18.75 38.4022 18.5525 38.0506 18.2008C37.699 17.8492 37.5014 17.3723 37.5014 16.875ZM31.8764 9.375V3.75C31.8764 3.25272 32.074 2.77581 32.4256 2.42417C32.7772 2.07254 33.2542 1.875 33.7514 1.875C34.2487 1.875 34.7256 2.07254 35.0773 2.42417C35.4289 2.77581 35.6264 3.25272 35.6264 3.75V9.375C35.6264 9.87228 35.4289 10.3492 35.0773 10.7008C34.7256 11.0525 34.2487 11.25 33.7514 11.25C33.2542 11.25 32.7772 11.0525 32.4256 10.7008C32.074 10.3492 31.8764 9.87228 31.8764 9.375ZM55.7124 28.6641C56.0645 29.0196 56.262 29.4997 56.262 30C56.262 30.5003 56.0645 30.9804 55.7124 31.3359C55.354 31.6825 54.875 31.8762 54.3764 31.8762C53.8779 31.8762 53.3989 31.6825 53.0405 31.3359L49.2905 27.5859C48.9915 27.2216 48.8387 26.7591 48.8618 26.2884C48.8849 25.8177 49.0823 25.3724 49.4156 25.0391C49.7488 24.7059 50.1941 24.5085 50.6649 24.4854C51.1356 24.4623 51.5981 24.6151 51.9624 24.9141L55.7124 28.6641ZM56.8374 18.6562L51.2124 20.5312C51.024 20.5964 50.8257 20.6281 50.6264 20.625C50.1805 20.6251 49.7491 20.4663 49.4097 20.177C49.0703 19.8878 48.8452 19.487 48.7746 19.0467C48.704 18.6064 48.7927 18.1553 49.0247 17.7745C49.2567 17.3937 49.6169 17.108 50.0405 16.9688L55.6655 15.0938C55.8994 15.0168 56.1462 14.9867 56.3918 15.0051C56.6373 15.0235 56.8768 15.0902 57.0967 15.2011C57.3165 15.3121 57.5123 15.4653 57.6729 15.652C57.8335 15.8387 57.9557 16.0551 58.0327 16.2891C58.1096 16.523 58.1398 16.7698 58.1213 17.0153C58.1029 17.2609 58.0363 17.5004 57.9253 17.7202C57.8143 17.94 57.6611 18.1358 57.4744 18.2964C57.2878 18.457 57.0713 18.5793 56.8374 18.6562Z" fill="url(#paint1_linear_421_3829)"/>
<defs>
<linearGradient id="paint0_linear_421_3829" x1="-5.01842" y1="45" x2="53.3704" y2="44.7871" gradientUnits="userSpaceOnUse">
<stop offset="0.197917" stop-color="#B16CEA"/>
<stop offset="0.557292" stop-color="#FF5E69"/>
<stop offset="0.828125" stop-color="#FF8A56"/>
<stop offset="1" stop-color="#FFA84B"/>
</linearGradient>
<linearGradient id="paint1_linear_421_3829" x1="2.60735" y1="40.3008" x2="52.4656" y2="40.119" gradientUnits="userSpaceOnUse">
<stop offset="0.197917" stop-color="#B16CEA"/>
<stop offset="0.557292" stop-color="#FF5E69"/>
<stop offset="0.828125" stop-color="#FF8A56"/>
<stop offset="1" stop-color="#FFA84B"/>
</linearGradient>
</defs>
</svg>
