<svg width="60" height="60" viewBox="0 0 60 60" fill="none" xmlns="http://www.w3.org/2000/svg">
<path opacity="0.1" d="M0 0L5.01726 2.1407C30.5339 13.0278 50.4271 33.9618 60 60H0V0Z" fill="url(#paint0_linear_421_3845)"/>
<path d="M54.75 45.8431L45.0469 9.60871C44.7888 8.64842 44.1599 7.82995 43.2984 7.33329C42.4369 6.83664 41.4135 6.70246 40.4531 6.96027L33.2109 8.90559L32.9766 8.9759C32.6272 8.51763 32.177 8.14603 31.6607 7.88996C31.1445 7.63388 30.5762 7.50022 30 7.49934H22.5C21.8402 7.50111 21.1929 7.67912 20.625 8.01496C20.0571 7.67912 19.4098 7.50111 18.75 7.49934H11.25C10.2554 7.49934 9.30161 7.89442 8.59835 8.59769C7.89509 9.30095 7.5 10.2548 7.5 11.2493V48.7493C7.5 49.7439 7.89509 50.6977 8.59835 51.401C9.30161 52.1042 10.2554 52.4993 11.25 52.4993H18.75C19.4098 52.4976 20.0571 52.3195 20.625 51.9837C21.1929 52.3195 21.8402 52.4976 22.5 52.4993H30C30.9946 52.4993 31.9484 52.1042 32.6516 51.401C33.3549 50.6977 33.75 49.7439 33.75 48.7493V25.4056L40.2656 49.7103C40.4779 50.5112 40.9496 51.2192 41.6068 51.7238C42.264 52.2284 43.0699 52.5011 43.8984 52.4993C44.2219 52.4937 44.544 52.4544 44.8594 52.3821L52.1016 50.4368C53.0619 50.1787 53.8803 49.5498 54.377 48.6884C54.8736 47.8269 55.0078 46.8035 54.75 45.8431ZM41.4141 10.5931L42.8906 16.0071L35.6484 17.9525L34.1719 12.5384L41.4141 10.5931ZM30 11.2493V39.3743H22.5V11.2493H30ZM18.75 11.2493V16.8743H11.25V11.2493H18.75ZM30 48.7493H22.5V43.1243H30V48.7493ZM51.1406 46.804L43.8984 48.7493L42.4219 43.3118L49.6875 41.3665L51.1406 46.804Z" fill="url(#paint1_linear_421_3845)"/>
<defs>
<linearGradient id="paint0_linear_421_3845" x1="-5.01842" y1="45" x2="53.3704" y2="44.7871" gradientUnits="userSpaceOnUse">
<stop offset="0.197917" stop-color="#B16CEA"/>
<stop offset="0.557292" stop-color="#FF5E69"/>
<stop offset="0.828125" stop-color="#FF8A56"/>
<stop offset="1" stop-color="#FFA84B"/>
</linearGradient>
<linearGradient id="paint1_linear_421_3845" x1="3.53727" y1="41.0825" x2="49.6432" y2="40.9081" gradientUnits="userSpaceOnUse">
<stop offset="0.197917" stop-color="#B16CEA"/>
<stop offset="0.557292" stop-color="#FF5E69"/>
<stop offset="0.828125" stop-color="#FF8A56"/>
<stop offset="1" stop-color="#FFA84B"/>
</linearGradient>
</defs>
</svg>
