<svg width="60" height="60" viewBox="0 0 60 60" fill="none" xmlns="http://www.w3.org/2000/svg">
<path opacity="0.1" d="M0 30C0 13.4315 13.4315 0 30 0C46.5685 0 60 13.4315 60 30V60H30C13.4315 60 0 46.5685 0 30Z" fill="url(#paint0_linear_421_3837)"/>
<path d="M55.9451 17.2265C55.4088 16.7788 54.7574 16.4908 54.0654 16.3955C53.3733 16.3002 52.6684 16.4013 52.031 16.6874L40.1716 21.9608L33.281 9.53895C32.9517 8.95901 32.4745 8.47671 31.8981 8.14119C31.3217 7.80567 30.6667 7.62891 29.9998 7.62891C29.3328 7.62891 28.6778 7.80567 28.1014 8.14119C27.525 8.47671 27.0479 8.95901 26.7185 9.53895L19.8279 21.9608L7.96851 16.6874C7.32986 16.4018 6.62403 16.3005 5.93082 16.395C5.23762 16.4895 4.58468 16.7761 4.04582 17.2223C3.50696 17.6685 3.10367 18.2566 2.88154 18.92C2.6594 19.5834 2.62729 20.2957 2.78882 20.9765L8.74195 46.3593C8.85578 46.8507 9.06819 47.3139 9.36632 47.7208C9.66444 48.1277 10.0421 48.4698 10.4763 48.7265C11.0642 49.0784 11.7364 49.2646 12.4216 49.2655C12.7547 49.2649 13.0861 49.2176 13.406 49.1249C24.2572 46.1248 35.7189 46.1248 46.5701 49.1249C47.5609 49.3854 48.6145 49.2421 49.4998 48.7265C49.9367 48.4731 50.3164 48.1319 50.6149 47.7245C50.9134 47.3171 51.1242 46.8522 51.2341 46.3593L57.2107 20.9765C57.3704 20.2956 57.3365 19.5835 57.1129 18.9209C56.8892 18.2582 56.4847 17.6713 55.9451 17.2265ZM39.3748 38.0858C39.3231 38.5479 39.1037 38.975 38.7581 39.286C38.4125 39.5971 37.9647 39.7705 37.4998 39.7733H37.3123C32.4497 39.2811 27.5498 39.2811 22.6873 39.7733C22.1931 39.8259 21.6984 39.6801 21.3117 39.3681C20.9249 39.0561 20.6779 38.6033 20.6248 38.1093C20.5788 37.6128 20.7301 37.1181 21.0458 36.7322C21.3616 36.3462 21.8165 36.1 22.3123 36.0468C27.4231 35.5077 32.5764 35.5077 37.6873 36.0468C38.1786 36.1001 38.6298 36.343 38.9449 36.7237C39.2601 37.1045 39.4143 37.5932 39.3748 38.0858Z" fill="url(#paint1_linear_421_3837)"/>
<defs>
<linearGradient id="paint0_linear_421_3837" x1="-5.01842" y1="45" x2="53.3704" y2="44.7871" gradientUnits="userSpaceOnUse">
<stop offset="0.197917" stop-color="#B16CEA"/>
<stop offset="0.557292" stop-color="#FF5E69"/>
<stop offset="0.828125" stop-color="#FF8A56"/>
<stop offset="1" stop-color="#FFA84B"/>
</linearGradient>
<linearGradient id="paint1_linear_421_3837" x1="-1.88113" y1="38.8564" x2="51.2739" y2="38.6021" gradientUnits="userSpaceOnUse">
<stop offset="0.197917" stop-color="#B16CEA"/>
<stop offset="0.557292" stop-color="#FF5E69"/>
<stop offset="0.828125" stop-color="#FF8A56"/>
<stop offset="1" stop-color="#FFA84B"/>
</linearGradient>
</defs>
</svg>
